# cube.obj
#
mtllib cube.mtl
o cube
v -1.0 -1.0  1.0
v  1.0 -1.0  1.0
v -1.0  1.0  1.0
v  1.0  1.0  1.0
v -1.0  1.0 -1.0
v  1.0  1.0 -1.0
v -1.0 -1.0 -1.0
v  1.0 -1.0 -1.0
vt 0.00 0.00
vt 1.00 0.00
vt 0.00 1.00
vt 1.00 1.00
vn 0.00 0.00 1.00
vn 0.00 1.00 0.00
vn 0.00 0.00 -1.00
vn 0.00 -1.00 0.00
vn 1.00 0.00 0.00
vn -1.00 0.00 0.00
usemtl wall
s off
f 1/1/1 2/2/1 3/3/1
f 3/3/1 2/2/1 4/4/1

f 3/1/2 4/2/2 5/3/2
f 5/3/2 4/2/2 6/4/2

f 5/4/3 6/3/3 7/2/3
f 7/2/3 6/3/3 8/1/3

f 7/1/4 8/2/4 1/3/4
f 1/3/4 8/2/4 2/4/4

f 2/1/5 8/2/5 4/3/5
f 4/3/5 8/2/5 6/4/5

f 7/1/6 1/2/6 5/3/6
f 5/3/6 1/2/6 3/4/6

o cube2
v -4.0 -4.0 -2.0
v -2.0 -4.0 -2.0
v -4.0 -2.0 -2.0
v -2.0 -2.0 -2.0
v -4.0 -2.0 -4.0
v -2.0 -2.0 -4.0
v -4.0 -4.0 -4.0
v -2.0 -4.0 -4.0
vt 0.00 0.00
vt 1.00 0.00
vt 0.00 1.00
vt 1.00 1.00
vn 0.00 0.00 1.00
vn 0.00 1.00 0.00
vn 0.00 0.00 -1.00
vn 0.00 -1.00 0.00
vn 1.00 0.00 0.00
vn -1.00 0.00 0.00
usemtl wall
s off
f 1/1/1 2/2/1 3/3/1
f 3/3/1 2/2/1 4/4/1

f 3/1/2 4/2/2 5/3/2
f 5/3/2 4/2/2 6/4/2

f 5/4/3 6/3/3 7/2/3
f 7/2/3 6/3/3 8/1/3

f 7/1/4 8/2/4 1/3/4
f 1/3/4 8/2/4 2/4/4

f 2/1/5 8/2/5 4/3/5
f 4/3/5 8/2/5 6/4/5

f 7/1/6 1/2/6 5/3/6
f 5/3/6 1/2/6 3/4/6

